<svg aria-hidden="true" style="width:0;height:0;position:absolute;overflow:hidden" xmlns="http://www.w3.org/2000/svg"><defs><symbol id="icon-cross" viewBox="0 0 32 32"><path d="M18.088 16 30.37 3.719a1.481 1.481 0 0 0-2.089-2.089L16 13.911 3.719 1.615a1.487 1.487 0 1 0-2.104 2.104L13.911 16 1.615 28.281a1.484 1.484 0 0 0 .423 2.505 1.472 1.472 0 0 0 1.186-.046c.184-.089.347-.215.48-.37L16 18.088 28.281 30.37a1.481 1.481 0 0 0 2.089-2.089L18.088 16z"/></symbol><symbol id="icon-facebook" viewBox="0 0 16 32"><path d="M14.143 15.972h-4.034v14.865H3.997V15.972H1.09v-5.224h2.907V7.367c0-2.418 1.142-6.203 6.166-6.203l4.527.019v5.071h-3.285c-.539 0-1.296.271-1.296 1.424v3.075h4.567l-.534 5.219z"/></symbol><symbol id="icon-telegram" viewBox="0 0 44 32"><path d="m17.343 21.048-.675 8.86c.966 0 1.384-.387 1.885-.852l4.527-4.038 9.381 6.412c1.72.895 2.933.424 3.397-1.477l6.157-26.929.002-.002c.546-2.374-.92-3.302-2.596-2.72L3.227 13.235c-2.47.895-2.433 2.18-.42 2.762l9.253 2.686L33.554 6.131c1.012-.625 1.931-.279 1.175.346l-17.386 14.57z"/></symbol><symbol id="icon-Vector" viewBox="0 0 32 32"><path d="M16 0C7.212 0 0 7.212 0 16c0 7.499 5.262 14.312 12.25 16v-5.293c-.692.152-1.33.156-2.034-.052-.946-.279-1.714-.909-2.284-1.869-.364-.613-1.008-1.278-1.68-1.23l-.165-1.868c1.453-.124 2.711.886 3.457 2.14.332.558.713.884 1.203 1.029.473.14.982.072 1.574-.137.149-1.186.692-1.63 1.102-2.255v-.001c-4.167-.622-5.828-2.832-6.488-4.578-.874-2.317-.405-5.212 1.14-7.041.03-.036.084-.129.063-.194-.708-2.139.155-3.909.187-4.097.817.242.95-.243 3.551 1.337l.449.27c.188.112.129.048.317.034A13.544 13.544 0 0 1 16 7.723c1.136.015 2.273.178 3.404.484l.145.015c-.013-.002.04-.009.127-.062 3.248-1.968 3.132-1.324 4.003-1.608.032.188.883 1.987.182 4.099-.095.291 2.816 2.956 1.203 7.235-.659 1.746-2.32 3.957-6.487 4.578v.001c.534.814 1.176 1.247 1.173 2.927V32C26.738 30.312 32 23.499 32 16c0-8.788-7.212-16-16-16z"/></symbol><symbol id="icon-frame" viewBox="0 0 32 32"><path d="M10.667 5.333 23.862 16 10.667 26.667"/></symbol><symbol id="icon-close" viewBox="0 0 32 32"><path d="M18.006 16 29.792 4.211a1.42 1.42 0 0 0-2.005-2.005l.002-.001L16 13.994 4.211 2.189a1.43 1.43 0 0 0-2.02 2.022L13.996 16 2.188 27.789a1.42 1.42 0 1 0 2.005 2.008l.001-.001 11.808-11.789 11.786 11.786a1.42 1.42 0 0 0 2.002-2.009l.001.002L18.005 16z"/></symbol><symbol id="icon-Frame-38" viewBox="0 0 32 32"><path stroke-linejoin="round" stroke-linecap="round" stroke-width="5.333" d="M10.667 5.333 23.867 16l-13.2 10.667"/><symbol id="icon-close-menu" viewBox="0 0 32 32"><path d="M23.884 6.706 16 14.59 8.116 6.706a.996.996 0 0 0-1.672.736c0 .26.099.497.262.674l-.001-.001 7.88 7.884-7.882 7.882a.998.998 0 0 0 1.41 1.412l7.886-7.882 7.884 7.884a.996.996 0 0 0 1.672-.736.992.992 0 0 0-.262-.674l.001.001-7.884-7.884 7.884-7.886a.998.998 0 0 0-1.41-1.412v.002z"/></symbol><symbol id="icon-menu" viewBox="0 0 32 32"><path stroke="#fff" style="stroke:var(--color2,#fff)" stroke-linecap="round" stroke-width="2" d="M6 10h20M6 16h20M6 22h20"/></symbol><symbol id="icon-button-arrow" viewBox="0 0 32 32"><path stroke-linejoin="round" stroke-linecap="round" stroke-width="5.333" d="M10.667 5.333 23.867 16l-13.2 10.667"/></symbol><symbol id="icon-button-ice" viewBox="0 0 15 32"><path fill="#f8ad48" style="fill:var(--color1,#f8ad48)" opacity=".68" d="m2.103 13.805 5.608 18.127 5.445-17.947z"/><path fill="#f8ad48" style="fill:var(--color1,#f8ad48)" d="m7.186 30.133.82.755-.262 1.043zm-.273-.719 2.165-1.978.722-2.518-3.28 3.129zm-1.107-3.668 5.311-5.107.847-2.661-6.582 6.402zm-1.145-3.705 8.036-7.805L10.5 14.2l-6.33 6.186zm1.377-8.2-2.919 3.165.361 1.295 4.428-4.28z"/><path fill="#f8ad48" style="fill:var(--color1,#f8ad48)" d="m5.022 23.12 4.165 3.884-.459 1.547-2.919-2.805zm-2.099-6.69 7.347 7.013-.426 1.475-6.199-6.15zm8.527 3.201-.459 1.475-7.708-7.337h2.263zm-2.722-5.754 3.411 3.453.459-1.439-1.968-2.086z"/><path fill="#ee569e" style="fill:var(--color2,#ee569e)" d="M13.665 13.427c.169-.483.267-1.04.267-1.62v-.002c0-3.075-2.761-5.568-6.168-5.568S1.596 8.73 1.596 11.805c0 .564.093 1.109.267 1.622-.65.246-1.107.827-1.107 1.503 0 .9.808 1.63 1.806 1.63.814 0 1.503-.487 1.728-1.156.225.669.913 1.156 1.729 1.156.841 0 1.546-.52 1.746-1.224.201.704.906 1.224 1.747 1.224.816 0 1.504-.487 1.729-1.157.224.67.912 1.157 1.727 1.157.997 0 1.806-.73 1.806-1.63 0-.677-.457-1.257-1.107-1.503z"/><path fill="#f181b2" style="fill:var(--color3,#f181b2)" d="M13.365 9.979a5.078 5.078 0 0 0 .095-1.641c-.323-3.101-3.316-5.561-6.687-5.494S.931 5.48 1.253 8.581c.059.569.209 1.117.434 1.631-.618.261-1.009.855-.938 1.538.094.908.971 1.628 1.958 1.608.807-.016 1.437-.521 1.588-1.2.293.67 1.025 1.148 1.831 1.132.833-.017 1.476-.555 1.601-1.268.272.706 1.024 1.216 1.856 1.2.808-.016 1.437-.521 1.59-1.2.292.671 1.024 1.148 1.83 1.132.987-.02 1.71-.771 1.616-1.679-.071-.683-.584-1.258-1.253-1.494z"/><path fill="#f6b9d3" style="fill:var(--color4,#f6b9d3)" d="M13.12 7.176c.195-.53.31-1.089.332-1.664.12-3.133-2.556-5.554-5.979-5.407S1.181 2.911 1.06 6.044a5.04 5.04 0 0 0 .205 1.641C.602 7.964.12 8.575.094 9.264c-.035.917.748 1.626 1.751 1.583.818-.035 1.528-.561 1.78-1.252.2.672.872 1.139 1.691 1.104.845-.036 1.574-.597 1.802-1.322.174.708.862 1.207 1.707 1.171.819-.035 1.529-.561 1.781-1.253.2.673.871 1.139 1.69 1.104 1.002-.043 1.842-.821 1.877-1.738.026-.69-.41-1.261-1.054-1.484z"/><path fill="#fefefe" style="fill:var(--color5,#fefefe)" opacity=".27" d="M5.672 1.604S2.39 2.269 1.998 7c0 0 .262.432.853-.144 0 0 1.509-4.388 3.346-4.388 0 0 .656-1.007-.525-.863z"/><path fill="#f181b2" style="fill:var(--color3,#f181b2)" d="M10.855 14.734c0 .298-.206.54-.459.54s-.459-.242-.459-.54c0-.298.206-.54.459-.54s.459.242.459.54zM3.769 11.82c0 .238-.162.432-.361.432s-.361-.193-.361-.432c0-.238.162-.432.361-.432s.361.193.361.432z"/><path fill="#f181b2" style="fill:var(--color3,#f181b2)" opacity=".4" d="M5.639 11.281c0 .179-.162.324-.361.324s-.361-.145-.361-.324c0-.179.162-.324.361-.324s.361.145.361.324z"/><path fill="#f181b2" style="fill:var(--color3,#f181b2)" d="m2.953 14.662-.015.143c-.017.157-.148.271-.291.252l-.586-.076c-.143-.018-.247-.162-.23-.319l.015-.143c.017-.157.148-.271.291-.252l.586.076c.143.018.247.162.23.319zm3.484-.396H6.35a.417.417 0 0 1-.416-.416v-.175c0-.229.187-.416.416-.416h.087c.229 0 .416.187.416.416v.175a.417.417 0 0 1-.416.416z"/><path fill="#fefefe" style="fill:var(--color5,#fefefe)" opacity=".27" d="M7.712 2.545h-.706a.239.239 0 0 1-.238-.238v-.532c0-.131.107-.238.238-.238h.706c.131 0 .238.107.238.238v.532a.239.239 0 0 1-.238.238z"/></symbol><symbol id="icon-arrow-up" viewBox="0 0 32 32"><path d="M0 16c0 8.837 7.163 16 16 16s16-7.163 16-16S24.837 0 16 0 0 7.163 0 16zm29 0c0 7.18-5.82 13-13 13S3 23.18 3 16 8.82 3 16 3s13 5.82 13 13z"/><path d="m22.086 20.914 2.829-2.829-8.914-8.914-8.914 8.914 2.828 2.828 6.086-6.086z"/></symbol></symbol></defs></svg>