<svg aria-hidden="true" style="position: absolute; width: 0; height: 0; overflow: hidden;" version="1.1" xmlns="http://www.w3.org/2000/svg" xmlns:xlink="http://www.w3.org/1999/xlink">
<defs>
<symbol id="icon-cross" viewBox="0 0 32 32">
<path d="M18.088 16l12.282-12.281c0.243-0.283 0.369-0.648 0.355-1.021s-0.169-0.727-0.433-0.99c-0.264-0.264-0.617-0.418-0.99-0.433s-0.737 0.112-1.021 0.355l-12.281 12.281-12.281-12.296c-0.279-0.279-0.657-0.436-1.052-0.436s-0.773 0.157-1.052 0.436c-0.279 0.279-0.436 0.657-0.436 1.052s0.157 0.773 0.436 1.052l12.296 12.281-12.296 12.281c-0.155 0.133-0.281 0.296-0.37 0.48s-0.139 0.384-0.147 0.588c-0.008 0.204 0.026 0.408 0.101 0.598s0.187 0.363 0.332 0.507c0.144 0.145 0.317 0.257 0.507 0.332s0.394 0.109 0.598 0.101c0.204-0.008 0.404-0.058 0.588-0.147s0.347-0.215 0.48-0.37l12.296-12.282 12.281 12.282c0.283 0.243 0.648 0.369 1.021 0.355s0.727-0.169 0.99-0.433c0.264-0.264 0.418-0.617 0.433-0.99s-0.112-0.737-0.355-1.021l-12.282-12.281z"></path>
</symbol>
<symbol id="icon-facebook" viewBox="0 0 16 32">
<path   d="M14.143 15.972h-4.034v14.865h-6.112v-14.865h-2.907v-5.224h2.907v-3.381c0-2.418 1.142-6.203 6.166-6.203l4.527 0.019v5.071h-3.285c-0.539 0-1.296 0.271-1.296 1.424v3.075h4.567l-0.534 5.219z"></path>
</symbol>
<symbol id="icon-telegram" viewBox="0 0 44 32">
<path  d="M17.343 21.048l-0.675 8.86c0.966 0 1.384-0.387 1.885-0.852l4.527-4.038 9.381 6.412c1.72 0.895 2.933 0.424 3.397-1.477l6.157-26.929 0.002-0.002c0.546-2.374-0.92-3.302-2.596-2.72l-36.194 12.933c-2.47 0.895-2.433 2.18-0.42 2.762l9.253 2.686 21.494-12.552c1.012-0.625 1.931-0.279 1.175 0.346l-17.386 14.57z"></path>
</symbol>
<symbol id="icon-Vector" viewBox="0 0 32 32">
<path  d="M16 0c-8.788 0-16 7.212-16 16 0 7.499 5.262 14.312 12.25 16v-5.293c-0.692 0.152-1.33 0.156-2.034-0.052-0.946-0.279-1.714-0.909-2.284-1.869-0.364-0.613-1.008-1.278-1.68-1.23l-0.165-1.868c1.453-0.124 2.711 0.886 3.457 2.14 0.332 0.558 0.713 0.884 1.203 1.029 0.473 0.14 0.982 0.072 1.574-0.137 0.149-1.186 0.692-1.63 1.102-2.255v-0.001c-4.167-0.622-5.828-2.832-6.488-4.578-0.874-2.317-0.405-5.212 1.14-7.041 0.030-0.036 0.084-0.129 0.063-0.194-0.708-2.139 0.155-3.909 0.187-4.097 0.817 0.242 0.95-0.243 3.551 1.337l0.449 0.27c0.188 0.112 0.129 0.048 0.317 0.034 1.086-0.295 2.23-0.458 3.358-0.472 1.136 0.015 2.273 0.178 3.404 0.484l0.145 0.015c-0.013-0.002 0.040-0.009 0.127-0.062 3.248-1.968 3.132-1.324 4.003-1.608 0.032 0.188 0.883 1.987 0.182 4.099-0.095 0.291 2.816 2.956 1.203 7.235-0.659 1.746-2.32 3.957-6.487 4.578v0.001c0.534 0.814 1.176 1.247 1.173 2.927v6.608c6.988-1.688 12.25-8.501 12.25-16 0-8.788-7.212-16-16-16v0z"></path>
</symbol>
<symbol id="icon-frame" viewBox="0 0 32 32">
<path  d="M10.667 5.333l13.195 10.667-13.195 10.667"></path>
</symbol>
<symbol id="icon-close" viewBox="0 0 32 32">
<path d="M18.006 16l11.786-11.789c0.218-0.249 0.352-0.577 0.352-0.936 0-0.785-0.636-1.421-1.421-1.421-0.358 0-0.686 0.133-0.936 0.352l0.002-0.001-11.789 11.789-11.789-11.805c-0.259-0.258-0.615-0.418-1.010-0.418-0.789 0-1.429 0.64-1.429 1.429 0 0.395 0.16 0.753 0.419 1.011l11.805 11.789-11.808 11.789c-0.29 0.261-0.472 0.638-0.472 1.057 0 0.785 0.636 1.421 1.421 1.421 0.419 0 0.796-0.182 1.056-0.47l0.001-0.001 11.808-11.789 11.786 11.786c0.248 0.218 0.576 0.35 0.934 0.35 0.785 0 1.421-0.636 1.421-1.421 0-0.359-0.133-0.687-0.353-0.938l0.001 0.002-11.786-11.786z"></path>
</symbol>
<symbol id="icon-Frame-38" viewBox="0 0 32 32">
<path stroke-linejoin="round" stroke-linecap="round" stroke-miterlimit="4" stroke-width="5.3333" d="M10.667 5.333l13.2 10.667-13.2 10.667"></path>
<symbol id="icon-close-menu" viewBox="0 0 32 32">
<path  d="M23.884 6.706l-7.884 7.884-7.884-7.884c-0.177-0.162-0.414-0.262-0.674-0.262-0.551 0-0.998 0.447-0.998 0.998 0 0.26 0.099 0.497 0.262 0.674l-0.001-0.001 7.88 7.884-7.882 7.882c-0.181 0.181-0.293 0.43-0.293 0.706 0 0.551 0.447 0.998 0.998 0.998 0.275 0 0.524-0.111 0.705-0.292v0l7.886-7.882 7.884 7.884c0.177 0.162 0.414 0.262 0.674 0.262 0.551 0 0.998-0.447 0.998-0.998 0-0.26-0.099-0.497-0.262-0.674l0.001 0.001-7.884-7.884 7.884-7.886c0.181-0.181 0.293-0.43 0.293-0.706 0-0.551-0.447-0.998-0.998-0.998-0.275 0-0.524 0.111-0.705 0.292v0 0.002z"></path>
</symbol>
<symbol id="icon-menu" viewBox="0 0 32 32">
<path stroke="#fff" style="stroke: var(--color2, #fff)" stroke-linejoin="miter" stroke-linecap="round" stroke-miterlimit="4" stroke-width="2" d="M6 10h20M6 16h20M6 22h20"></path>
</symbol>
<symbol id="icon-button-arrow" viewBox="0 0 32 32">
<path stroke-linejoin="round" stroke-linecap="round" stroke-miterlimit="4" stroke-width="5.3333" d="M10.667 5.333l13.2 10.667-13.2 10.667"></path>
</symbol>
<symbol id="icon-button-ice" viewBox="0 0 15 32">
<path fill="#f8ad48" style="fill: var(--color1, #f8ad48)" opacity="0.68" d="M2.103 13.805l5.608 18.127 5.445-17.947z"></path>
<path fill="#f8ad48" style="fill: var(--color1, #f8ad48)" d="M7.186 30.133l0.82 0.755-0.262 1.043zM6.913 29.414l2.165-1.978 0.722-2.518-3.28 3.129zM5.806 25.746l5.311-5.107 0.847-2.661-6.582 6.402zM4.661 22.041l8.036-7.805-2.197-0.036-6.33 6.186zM6.038 13.841l-2.919 3.165 0.361 1.295 4.428-4.28z"></path>
<path fill="#f8ad48" style="fill: var(--color1, #f8ad48)" d="M5.022 23.12l4.165 3.884-0.459 1.547-2.919-2.805zM2.923 16.43l7.347 7.013-0.426 1.475-6.199-6.15zM11.45 19.631l-0.459 1.475-7.708-7.337h2.263zM8.728 13.877l3.411 3.453 0.459-1.439-1.968-2.086z"></path>
<path fill="#ee569e" style="fill: var(--color2, #ee569e)" d="M13.665 13.427c0.169-0.483 0.267-1.040 0.267-1.62 0-0.001 0-0.001 0-0.002v0c0-3.075-2.761-5.568-6.168-5.568s-6.168 2.493-6.168 5.568c0 0.564 0.093 1.109 0.267 1.622-0.65 0.246-1.107 0.827-1.107 1.503 0 0.9 0.808 1.63 1.806 1.63 0.814 0 1.503-0.487 1.728-1.156 0.225 0.669 0.913 1.156 1.729 1.156 0.841 0 1.546-0.52 1.746-1.224 0.201 0.704 0.906 1.224 1.747 1.224 0.816 0 1.504-0.487 1.729-1.157 0.224 0.67 0.912 1.157 1.727 1.157 0.997 0 1.806-0.73 1.806-1.63 0-0.677-0.457-1.257-1.107-1.503z"></path>
<path fill="#f181b2" style="fill: var(--color3, #f181b2)" d="M13.365 9.979c0.118-0.521 0.153-1.072 0.095-1.641-0.323-3.101-3.316-5.561-6.687-5.494s-5.842 2.636-5.52 5.737c0.059 0.569 0.209 1.117 0.434 1.631-0.618 0.261-1.009 0.855-0.938 1.538 0.094 0.908 0.971 1.628 1.958 1.608 0.807-0.016 1.437-0.521 1.588-1.2 0.293 0.67 1.025 1.148 1.831 1.132 0.833-0.017 1.476-0.555 1.601-1.268 0.272 0.706 1.024 1.216 1.856 1.2 0.808-0.016 1.437-0.521 1.59-1.2 0.292 0.671 1.024 1.148 1.83 1.132 0.987-0.020 1.71-0.771 1.616-1.679-0.071-0.683-0.584-1.258-1.253-1.494z"></path>
<path fill="#f6b9d3" style="fill: var(--color4, #f6b9d3)" d="M13.12 7.176c0.195-0.53 0.31-1.089 0.332-1.664 0.12-3.133-2.556-5.554-5.979-5.407s-6.292 2.806-6.413 5.939c-0.022 0.575 0.051 1.126 0.205 1.641-0.663 0.279-1.145 0.89-1.171 1.579-0.035 0.917 0.748 1.626 1.751 1.583 0.818-0.035 1.528-0.561 1.78-1.252 0.2 0.672 0.872 1.139 1.691 1.104 0.845-0.036 1.574-0.597 1.802-1.322 0.174 0.708 0.862 1.207 1.707 1.171 0.819-0.035 1.529-0.561 1.781-1.253 0.2 0.673 0.871 1.139 1.69 1.104 1.002-0.043 1.842-0.821 1.877-1.738 0.026-0.69-0.41-1.261-1.054-1.484z"></path>
<path fill="#fefefe" style="fill: var(--color5, #fefefe)" opacity="0.27" d="M5.672 1.604s-3.282 0.665-3.674 5.396c0 0 0.262 0.432 0.853-0.144 0 0 1.509-4.388 3.346-4.388 0 0 0.656-1.007-0.525-0.863z"></path>
<path fill="#f181b2" style="fill: var(--color3, #f181b2)" d="M10.855 14.734c0 0.298-0.206 0.54-0.459 0.54s-0.459-0.242-0.459-0.54c0-0.298 0.206-0.54 0.459-0.54s0.459 0.242 0.459 0.54zM3.769 11.82c0 0.238-0.162 0.432-0.361 0.432s-0.361-0.193-0.361-0.432c0-0.238 0.162-0.432 0.361-0.432s0.361 0.193 0.361 0.432z"></path>
<path fill="#f181b2" style="fill: var(--color3, #f181b2)" opacity="0.4" d="M5.639 11.281c0 0.179-0.162 0.324-0.361 0.324s-0.361-0.145-0.361-0.324c0-0.179 0.162-0.324 0.361-0.324s0.361 0.145 0.361 0.324z"></path>
<path fill="#f181b2" style="fill: var(--color3, #f181b2)" d="M2.953 14.662l-0.015 0.143c-0.017 0.157-0.148 0.271-0.291 0.252l-0.586-0.076c-0.143-0.018-0.247-0.162-0.23-0.319l0.015-0.143c0.017-0.157 0.148-0.271 0.291-0.252l0.586 0.076c0.143 0.018 0.247 0.162 0.23 0.319zM6.437 14.266h-0.087c-0.229 0-0.416-0.187-0.416-0.416v-0.175c0-0.229 0.187-0.416 0.416-0.416h0.087c0.229 0 0.416 0.187 0.416 0.416v0.175c0 0.229-0.187 0.416-0.416 0.416z"></path>
<path fill="#fefefe" style="fill: var(--color5, #fefefe)" opacity="0.27" d="M7.712 2.545h-0.706c-0.131 0-0.238-0.107-0.238-0.238v-0.532c0-0.131 0.107-0.238 0.238-0.238h0.706c0.131 0 0.238 0.107 0.238 0.238v0.532c0 0.131-0.107 0.238-0.238 0.238z"></path>
</symbol>
<symbol id="icon-arrow-up" viewBox="0 0 32 32">
<path d="M0 16c0 8.837 7.163 16 16 16s16-7.163 16-16-7.163-16-16-16-16 7.163-16 16zM29 16c0 7.18-5.82 13-13 13s-13-5.82-13-13 5.82-13 13-13 13 5.82 13 13z"></path>
<path d="M22.086 20.914l2.829-2.829-8.914-8.914-8.914 8.914 2.828 2.828 6.086-6.086z"></path>
</symbol>
</defs>
</svg>
